G04 (created by PCBNEW (2012-jan-04)-stable) date Fri 05 Oct 2012 03:30:35 PM CEST*
G01*
G70*
G90*
%MOIN*%
G04 Gerber Fmt 3.4, Leading zero omitted, Abs format*
%FSLAX34Y34*%
G04 APERTURE LIST*
%ADD10C,0.001000*%
%ADD11C,0.015000*%
%ADD12C,0.008000*%
G04 APERTURE END LIST*
G54D10*
G54D11*
X46358Y-40748D02*
X46358Y-36417D01*
X49902Y-40748D02*
X46358Y-40748D01*
X49902Y-36417D02*
X49902Y-40748D01*
X46358Y-36417D02*
X49902Y-36417D01*
G54D10*
X47927Y-38281D02*
X48057Y-38411D01*
X48057Y-38281D02*
X47927Y-38411D01*
X47927Y-38754D02*
X48057Y-38884D01*
X48057Y-38754D02*
X47927Y-38884D01*
X48124Y-38518D02*
X48254Y-38648D01*
X48254Y-38518D02*
X48124Y-38648D01*
X48321Y-38281D02*
X48451Y-38411D01*
X48451Y-38281D02*
X48321Y-38411D01*
X48321Y-38754D02*
X48451Y-38884D01*
X48451Y-38754D02*
X48321Y-38884D01*
X47330Y-37083D02*
X47326Y-37121D01*
X47314Y-37159D01*
X47296Y-37193D01*
X47271Y-37223D01*
X47241Y-37248D01*
X47207Y-37267D01*
X47170Y-37278D01*
X47131Y-37282D01*
X47093Y-37279D01*
X47056Y-37268D01*
X47021Y-37250D01*
X46991Y-37225D01*
X46965Y-37195D01*
X46947Y-37161D01*
X46935Y-37124D01*
X46931Y-37085D01*
X46934Y-37047D01*
X46945Y-37010D01*
X46962Y-36975D01*
X46987Y-36945D01*
X47016Y-36919D01*
X47050Y-36900D01*
X47088Y-36888D01*
X47126Y-36884D01*
X47164Y-36887D01*
X47202Y-36897D01*
X47237Y-36915D01*
X47267Y-36939D01*
X47293Y-36968D01*
X47312Y-37002D01*
X47325Y-37039D01*
X47329Y-37078D01*
X47330Y-37083D01*
X47330Y-40083D02*
X47326Y-40121D01*
X47314Y-40159D01*
X47296Y-40193D01*
X47271Y-40223D01*
X47241Y-40248D01*
X47207Y-40267D01*
X47170Y-40278D01*
X47131Y-40282D01*
X47093Y-40279D01*
X47056Y-40268D01*
X47021Y-40250D01*
X46991Y-40225D01*
X46965Y-40195D01*
X46947Y-40161D01*
X46935Y-40124D01*
X46931Y-40085D01*
X46934Y-40047D01*
X46945Y-40010D01*
X46962Y-39975D01*
X46987Y-39945D01*
X47016Y-39919D01*
X47050Y-39900D01*
X47088Y-39888D01*
X47126Y-39884D01*
X47164Y-39887D01*
X47202Y-39897D01*
X47237Y-39915D01*
X47267Y-39939D01*
X47293Y-39968D01*
X47312Y-40002D01*
X47325Y-40039D01*
X47329Y-40078D01*
X47330Y-40083D01*
X48330Y-37083D02*
X48326Y-37121D01*
X48314Y-37159D01*
X48296Y-37193D01*
X48271Y-37223D01*
X48241Y-37248D01*
X48207Y-37267D01*
X48170Y-37278D01*
X48131Y-37282D01*
X48093Y-37279D01*
X48056Y-37268D01*
X48021Y-37250D01*
X47991Y-37225D01*
X47965Y-37195D01*
X47947Y-37161D01*
X47935Y-37124D01*
X47931Y-37085D01*
X47934Y-37047D01*
X47945Y-37010D01*
X47962Y-36975D01*
X47987Y-36945D01*
X48016Y-36919D01*
X48050Y-36900D01*
X48088Y-36888D01*
X48126Y-36884D01*
X48164Y-36887D01*
X48202Y-36897D01*
X48237Y-36915D01*
X48267Y-36939D01*
X48293Y-36968D01*
X48312Y-37002D01*
X48325Y-37039D01*
X48329Y-37078D01*
X48330Y-37083D01*
X48330Y-40083D02*
X48326Y-40121D01*
X48314Y-40159D01*
X48296Y-40193D01*
X48271Y-40223D01*
X48241Y-40248D01*
X48207Y-40267D01*
X48170Y-40278D01*
X48131Y-40282D01*
X48093Y-40279D01*
X48056Y-40268D01*
X48021Y-40250D01*
X47991Y-40225D01*
X47965Y-40195D01*
X47947Y-40161D01*
X47935Y-40124D01*
X47931Y-40085D01*
X47934Y-40047D01*
X47945Y-40010D01*
X47962Y-39975D01*
X47987Y-39945D01*
X48016Y-39919D01*
X48050Y-39900D01*
X48088Y-39888D01*
X48126Y-39884D01*
X48164Y-39887D01*
X48202Y-39897D01*
X48237Y-39915D01*
X48267Y-39939D01*
X48293Y-39968D01*
X48312Y-40002D01*
X48325Y-40039D01*
X48329Y-40078D01*
X48330Y-40083D01*
X49330Y-37083D02*
X49326Y-37121D01*
X49314Y-37159D01*
X49296Y-37193D01*
X49271Y-37223D01*
X49241Y-37248D01*
X49207Y-37267D01*
X49170Y-37278D01*
X49131Y-37282D01*
X49093Y-37279D01*
X49056Y-37268D01*
X49021Y-37250D01*
X48991Y-37225D01*
X48965Y-37195D01*
X48947Y-37161D01*
X48935Y-37124D01*
X48931Y-37085D01*
X48934Y-37047D01*
X48945Y-37010D01*
X48962Y-36975D01*
X48987Y-36945D01*
X49016Y-36919D01*
X49050Y-36900D01*
X49088Y-36888D01*
X49126Y-36884D01*
X49164Y-36887D01*
X49202Y-36897D01*
X49237Y-36915D01*
X49267Y-36939D01*
X49293Y-36968D01*
X49312Y-37002D01*
X49325Y-37039D01*
X49329Y-37078D01*
X49330Y-37083D01*
X49330Y-40083D02*
X49326Y-40121D01*
X49314Y-40159D01*
X49296Y-40193D01*
X49271Y-40223D01*
X49241Y-40248D01*
X49207Y-40267D01*
X49170Y-40278D01*
X49131Y-40282D01*
X49093Y-40279D01*
X49056Y-40268D01*
X49021Y-40250D01*
X48991Y-40225D01*
X48965Y-40195D01*
X48947Y-40161D01*
X48935Y-40124D01*
X48931Y-40085D01*
X48934Y-40047D01*
X48945Y-40010D01*
X48962Y-39975D01*
X48987Y-39945D01*
X49016Y-39919D01*
X49050Y-39900D01*
X49088Y-39888D01*
X49126Y-39884D01*
X49164Y-39887D01*
X49202Y-39897D01*
X49237Y-39915D01*
X49267Y-39939D01*
X49293Y-39968D01*
X49312Y-40002D01*
X49325Y-40039D01*
X49329Y-40078D01*
X49330Y-40083D01*
G54D12*
X45956Y-44331D02*
X45956Y-43531D01*
X46147Y-43531D01*
X46261Y-43569D01*
X46337Y-43645D01*
X46376Y-43721D01*
X46414Y-43874D01*
X46414Y-43988D01*
X46376Y-44140D01*
X46337Y-44217D01*
X46261Y-44293D01*
X46147Y-44331D01*
X45956Y-44331D01*
X46756Y-44331D02*
X46756Y-43797D01*
X46756Y-43950D02*
X46795Y-43874D01*
X46833Y-43836D01*
X46909Y-43797D01*
X46985Y-43797D01*
X47251Y-44331D02*
X47251Y-43797D01*
X47251Y-43531D02*
X47213Y-43569D01*
X47251Y-43607D01*
X47290Y-43569D01*
X47251Y-43531D01*
X47251Y-43607D01*
X47747Y-44331D02*
X47671Y-44293D01*
X47632Y-44217D01*
X47632Y-43531D01*
X48166Y-44331D02*
X48090Y-44293D01*
X48051Y-44217D01*
X48051Y-43531D01*
X49080Y-44331D02*
X49080Y-43531D01*
X49347Y-44102D01*
X49614Y-43531D01*
X49614Y-44331D01*
X50337Y-44331D02*
X50337Y-43912D01*
X50299Y-43836D01*
X50223Y-43797D01*
X50071Y-43797D01*
X49994Y-43836D01*
X50337Y-44293D02*
X50261Y-44331D01*
X50071Y-44331D01*
X49994Y-44293D01*
X49956Y-44217D01*
X49956Y-44140D01*
X49994Y-44064D01*
X50071Y-44026D01*
X50261Y-44026D01*
X50337Y-43988D01*
X50718Y-43797D02*
X50718Y-44597D01*
X50718Y-43836D02*
X50795Y-43797D01*
X50947Y-43797D01*
X51023Y-43836D01*
X51061Y-43874D01*
X51099Y-43950D01*
X51099Y-44178D01*
X51061Y-44255D01*
X51023Y-44293D01*
X50947Y-44331D01*
X50795Y-44331D01*
X50718Y-44293D01*
X51442Y-44255D02*
X51481Y-44293D01*
X51442Y-44331D01*
X51404Y-44293D01*
X51442Y-44255D01*
X51442Y-44331D01*
X51442Y-43836D02*
X51481Y-43874D01*
X51442Y-43912D01*
X51404Y-43874D01*
X51442Y-43836D01*
X51442Y-43912D01*
X45436Y-45622D02*
X45566Y-45752D01*
X45566Y-45622D02*
X45436Y-45752D01*
X46109Y-45211D02*
X46185Y-45211D01*
X46261Y-45249D01*
X46299Y-45287D01*
X46337Y-45363D01*
X46376Y-45516D01*
X46376Y-45706D01*
X46337Y-45858D01*
X46299Y-45935D01*
X46261Y-45973D01*
X46185Y-46011D01*
X46109Y-46011D01*
X46033Y-45973D01*
X45995Y-45935D01*
X45956Y-45858D01*
X45918Y-45706D01*
X45918Y-45516D01*
X45956Y-45363D01*
X45995Y-45287D01*
X46033Y-45249D01*
X46109Y-45211D01*
X46718Y-45935D02*
X46757Y-45973D01*
X46718Y-46011D01*
X46680Y-45973D01*
X46718Y-45935D01*
X46718Y-46011D01*
X47252Y-45211D02*
X47328Y-45211D01*
X47404Y-45249D01*
X47442Y-45287D01*
X47480Y-45363D01*
X47519Y-45516D01*
X47519Y-45706D01*
X47480Y-45858D01*
X47442Y-45935D01*
X47404Y-45973D01*
X47328Y-46011D01*
X47252Y-46011D01*
X47176Y-45973D01*
X47138Y-45935D01*
X47099Y-45858D01*
X47061Y-45706D01*
X47061Y-45516D01*
X47099Y-45363D01*
X47138Y-45287D01*
X47176Y-45249D01*
X47252Y-45211D01*
X48281Y-46011D02*
X47823Y-46011D01*
X48052Y-46011D02*
X48052Y-45211D01*
X47976Y-45325D01*
X47900Y-45401D01*
X47823Y-45439D01*
X48547Y-45211D02*
X49043Y-45211D01*
X48776Y-45516D01*
X48890Y-45516D01*
X48966Y-45554D01*
X49004Y-45592D01*
X49043Y-45668D01*
X49043Y-45858D01*
X49004Y-45935D01*
X48966Y-45973D01*
X48890Y-46011D01*
X48662Y-46011D01*
X48585Y-45973D01*
X48547Y-45935D01*
X49347Y-45211D02*
X49347Y-45363D01*
X49652Y-45211D02*
X49652Y-45363D01*
X51177Y-45173D02*
X50491Y-46201D01*
X52206Y-45211D02*
X52282Y-45211D01*
X52358Y-45249D01*
X52396Y-45287D01*
X52434Y-45363D01*
X52473Y-45516D01*
X52473Y-45706D01*
X52434Y-45858D01*
X52396Y-45935D01*
X52358Y-45973D01*
X52282Y-46011D01*
X52206Y-46011D01*
X52130Y-45973D01*
X52092Y-45935D01*
X52053Y-45858D01*
X52015Y-45706D01*
X52015Y-45516D01*
X52053Y-45363D01*
X52092Y-45287D01*
X52130Y-45249D01*
X52206Y-45211D01*
X52815Y-45935D02*
X52854Y-45973D01*
X52815Y-46011D01*
X52777Y-45973D01*
X52815Y-45935D01*
X52815Y-46011D01*
X53120Y-45211D02*
X53616Y-45211D01*
X53349Y-45516D01*
X53463Y-45516D01*
X53539Y-45554D01*
X53577Y-45592D01*
X53616Y-45668D01*
X53616Y-45858D01*
X53577Y-45935D01*
X53539Y-45973D01*
X53463Y-46011D01*
X53235Y-46011D01*
X53158Y-45973D01*
X53120Y-45935D01*
X53882Y-45211D02*
X54378Y-45211D01*
X54111Y-45516D01*
X54225Y-45516D01*
X54301Y-45554D01*
X54339Y-45592D01*
X54378Y-45668D01*
X54378Y-45858D01*
X54339Y-45935D01*
X54301Y-45973D01*
X54225Y-46011D01*
X53997Y-46011D01*
X53920Y-45973D01*
X53882Y-45935D01*
X54720Y-46011D02*
X54720Y-45477D01*
X54720Y-45554D02*
X54759Y-45516D01*
X54835Y-45477D01*
X54949Y-45477D01*
X55025Y-45516D01*
X55063Y-45592D01*
X55063Y-46011D01*
X55063Y-45592D02*
X55101Y-45516D01*
X55178Y-45477D01*
X55292Y-45477D01*
X55368Y-45516D01*
X55406Y-45592D01*
X55406Y-46011D01*
X55787Y-46011D02*
X55787Y-45477D01*
X55787Y-45554D02*
X55826Y-45516D01*
X55902Y-45477D01*
X56016Y-45477D01*
X56092Y-45516D01*
X56130Y-45592D01*
X56130Y-46011D01*
X56130Y-45592D02*
X56168Y-45516D01*
X56245Y-45477D01*
X56359Y-45477D01*
X56435Y-45516D01*
X56473Y-45592D01*
X56473Y-46011D01*
X57693Y-46316D02*
X57655Y-46277D01*
X57579Y-46163D01*
X57541Y-46087D01*
X57503Y-45973D01*
X57464Y-45782D01*
X57464Y-45630D01*
X57503Y-45439D01*
X57541Y-45325D01*
X57579Y-45249D01*
X57655Y-45135D01*
X57693Y-45097D01*
X58378Y-45211D02*
X57997Y-45211D01*
X57959Y-45592D01*
X57997Y-45554D01*
X58074Y-45516D01*
X58264Y-45516D01*
X58340Y-45554D01*
X58378Y-45592D01*
X58417Y-45668D01*
X58417Y-45858D01*
X58378Y-45935D01*
X58340Y-45973D01*
X58264Y-46011D01*
X58074Y-46011D01*
X57997Y-45973D01*
X57959Y-45935D01*
X59369Y-46011D02*
X59369Y-45211D01*
X59712Y-46011D02*
X59712Y-45592D01*
X59674Y-45516D01*
X59598Y-45477D01*
X59484Y-45477D01*
X59408Y-45516D01*
X59369Y-45554D01*
X60208Y-46011D02*
X60132Y-45973D01*
X60093Y-45935D01*
X60055Y-45858D01*
X60055Y-45630D01*
X60093Y-45554D01*
X60132Y-45516D01*
X60208Y-45477D01*
X60322Y-45477D01*
X60398Y-45516D01*
X60436Y-45554D01*
X60474Y-45630D01*
X60474Y-45858D01*
X60436Y-45935D01*
X60398Y-45973D01*
X60322Y-46011D01*
X60208Y-46011D01*
X60932Y-46011D02*
X60856Y-45973D01*
X60817Y-45897D01*
X60817Y-45211D01*
X61541Y-45973D02*
X61465Y-46011D01*
X61313Y-46011D01*
X61236Y-45973D01*
X61198Y-45897D01*
X61198Y-45592D01*
X61236Y-45516D01*
X61313Y-45477D01*
X61465Y-45477D01*
X61541Y-45516D01*
X61579Y-45592D01*
X61579Y-45668D01*
X61198Y-45744D01*
X61884Y-45973D02*
X61961Y-46011D01*
X62113Y-46011D01*
X62189Y-45973D01*
X62227Y-45897D01*
X62227Y-45858D01*
X62189Y-45782D01*
X62113Y-45744D01*
X61999Y-45744D01*
X61922Y-45706D01*
X61884Y-45630D01*
X61884Y-45592D01*
X61922Y-45516D01*
X61999Y-45477D01*
X62113Y-45477D01*
X62189Y-45516D01*
X62494Y-46316D02*
X62532Y-46277D01*
X62609Y-46163D01*
X62647Y-46087D01*
X62685Y-45973D01*
X62723Y-45782D01*
X62723Y-45630D01*
X62685Y-45439D01*
X62647Y-45325D01*
X62609Y-45249D01*
X62532Y-45135D01*
X62494Y-45097D01*
G54D10*
X45566Y-46742D02*
X45562Y-46780D01*
X45550Y-46818D01*
X45532Y-46852D01*
X45507Y-46882D01*
X45477Y-46907D01*
X45443Y-46926D01*
X45406Y-46937D01*
X45367Y-46941D01*
X45329Y-46938D01*
X45292Y-46927D01*
X45257Y-46909D01*
X45227Y-46884D01*
X45201Y-46854D01*
X45183Y-46820D01*
X45171Y-46783D01*
X45167Y-46744D01*
X45170Y-46706D01*
X45181Y-46669D01*
X45198Y-46634D01*
X45223Y-46604D01*
X45252Y-46578D01*
X45286Y-46559D01*
X45324Y-46547D01*
X45362Y-46543D01*
X45400Y-46546D01*
X45438Y-46556D01*
X45473Y-46574D01*
X45503Y-46598D01*
X45529Y-46627D01*
X45548Y-46661D01*
X45561Y-46698D01*
X45565Y-46737D01*
X45566Y-46742D01*
G54D12*
X46109Y-46266D02*
X46185Y-46266D01*
X46261Y-46304D01*
X46299Y-46342D01*
X46337Y-46418D01*
X46376Y-46571D01*
X46376Y-46761D01*
X46337Y-46913D01*
X46299Y-46990D01*
X46261Y-47028D01*
X46185Y-47066D01*
X46109Y-47066D01*
X46033Y-47028D01*
X45995Y-46990D01*
X45956Y-46913D01*
X45918Y-46761D01*
X45918Y-46571D01*
X45956Y-46418D01*
X45995Y-46342D01*
X46033Y-46304D01*
X46109Y-46266D01*
X46718Y-46990D02*
X46757Y-47028D01*
X46718Y-47066D01*
X46680Y-47028D01*
X46718Y-46990D01*
X46718Y-47066D01*
X47252Y-46266D02*
X47328Y-46266D01*
X47404Y-46304D01*
X47442Y-46342D01*
X47480Y-46418D01*
X47519Y-46571D01*
X47519Y-46761D01*
X47480Y-46913D01*
X47442Y-46990D01*
X47404Y-47028D01*
X47328Y-47066D01*
X47252Y-47066D01*
X47176Y-47028D01*
X47138Y-46990D01*
X47099Y-46913D01*
X47061Y-46761D01*
X47061Y-46571D01*
X47099Y-46418D01*
X47138Y-46342D01*
X47176Y-46304D01*
X47252Y-46266D01*
X48204Y-46532D02*
X48204Y-47066D01*
X48014Y-46228D02*
X47823Y-46799D01*
X48319Y-46799D01*
X48776Y-46266D02*
X48852Y-46266D01*
X48928Y-46304D01*
X48966Y-46342D01*
X49004Y-46418D01*
X49043Y-46571D01*
X49043Y-46761D01*
X49004Y-46913D01*
X48966Y-46990D01*
X48928Y-47028D01*
X48852Y-47066D01*
X48776Y-47066D01*
X48700Y-47028D01*
X48662Y-46990D01*
X48623Y-46913D01*
X48585Y-46761D01*
X48585Y-46571D01*
X48623Y-46418D01*
X48662Y-46342D01*
X48700Y-46304D01*
X48776Y-46266D01*
X49347Y-46266D02*
X49347Y-46418D01*
X49652Y-46266D02*
X49652Y-46418D01*
X51177Y-46228D02*
X50491Y-47256D01*
X52473Y-47066D02*
X52015Y-47066D01*
X52244Y-47066D02*
X52244Y-46266D01*
X52168Y-46380D01*
X52092Y-46456D01*
X52015Y-46494D01*
X52815Y-46990D02*
X52854Y-47028D01*
X52815Y-47066D01*
X52777Y-47028D01*
X52815Y-46990D01*
X52815Y-47066D01*
X53349Y-46266D02*
X53425Y-46266D01*
X53501Y-46304D01*
X53539Y-46342D01*
X53577Y-46418D01*
X53616Y-46571D01*
X53616Y-46761D01*
X53577Y-46913D01*
X53539Y-46990D01*
X53501Y-47028D01*
X53425Y-47066D01*
X53349Y-47066D01*
X53273Y-47028D01*
X53235Y-46990D01*
X53196Y-46913D01*
X53158Y-46761D01*
X53158Y-46571D01*
X53196Y-46418D01*
X53235Y-46342D01*
X53273Y-46304D01*
X53349Y-46266D01*
X53920Y-46342D02*
X53958Y-46304D01*
X54035Y-46266D01*
X54225Y-46266D01*
X54301Y-46304D01*
X54339Y-46342D01*
X54378Y-46418D01*
X54378Y-46494D01*
X54339Y-46609D01*
X53882Y-47066D01*
X54378Y-47066D01*
X54720Y-47066D02*
X54720Y-46532D01*
X54720Y-46609D02*
X54759Y-46571D01*
X54835Y-46532D01*
X54949Y-46532D01*
X55025Y-46571D01*
X55063Y-46647D01*
X55063Y-47066D01*
X55063Y-46647D02*
X55101Y-46571D01*
X55178Y-46532D01*
X55292Y-46532D01*
X55368Y-46571D01*
X55406Y-46647D01*
X55406Y-47066D01*
X55787Y-47066D02*
X55787Y-46532D01*
X55787Y-46609D02*
X55826Y-46571D01*
X55902Y-46532D01*
X56016Y-46532D01*
X56092Y-46571D01*
X56130Y-46647D01*
X56130Y-47066D01*
X56130Y-46647D02*
X56168Y-46571D01*
X56245Y-46532D01*
X56359Y-46532D01*
X56435Y-46571D01*
X56473Y-46647D01*
X56473Y-47066D01*
X57693Y-47371D02*
X57655Y-47332D01*
X57579Y-47218D01*
X57541Y-47142D01*
X57503Y-47028D01*
X57464Y-46837D01*
X57464Y-46685D01*
X57503Y-46494D01*
X57541Y-46380D01*
X57579Y-46304D01*
X57655Y-46190D01*
X57693Y-46152D01*
X58340Y-46266D02*
X58188Y-46266D01*
X58112Y-46304D01*
X58074Y-46342D01*
X57997Y-46456D01*
X57959Y-46609D01*
X57959Y-46913D01*
X57997Y-46990D01*
X58036Y-47028D01*
X58112Y-47066D01*
X58264Y-47066D01*
X58340Y-47028D01*
X58378Y-46990D01*
X58417Y-46913D01*
X58417Y-46723D01*
X58378Y-46647D01*
X58340Y-46609D01*
X58264Y-46571D01*
X58112Y-46571D01*
X58036Y-46609D01*
X57997Y-46647D01*
X57959Y-46723D01*
X59369Y-47066D02*
X59369Y-46266D01*
X59712Y-47066D02*
X59712Y-46647D01*
X59674Y-46571D01*
X59598Y-46532D01*
X59484Y-46532D01*
X59408Y-46571D01*
X59369Y-46609D01*
X60208Y-47066D02*
X60132Y-47028D01*
X60093Y-46990D01*
X60055Y-46913D01*
X60055Y-46685D01*
X60093Y-46609D01*
X60132Y-46571D01*
X60208Y-46532D01*
X60322Y-46532D01*
X60398Y-46571D01*
X60436Y-46609D01*
X60474Y-46685D01*
X60474Y-46913D01*
X60436Y-46990D01*
X60398Y-47028D01*
X60322Y-47066D01*
X60208Y-47066D01*
X60932Y-47066D02*
X60856Y-47028D01*
X60817Y-46952D01*
X60817Y-46266D01*
X61541Y-47028D02*
X61465Y-47066D01*
X61313Y-47066D01*
X61236Y-47028D01*
X61198Y-46952D01*
X61198Y-46647D01*
X61236Y-46571D01*
X61313Y-46532D01*
X61465Y-46532D01*
X61541Y-46571D01*
X61579Y-46647D01*
X61579Y-46723D01*
X61198Y-46799D01*
X61884Y-47028D02*
X61961Y-47066D01*
X62113Y-47066D01*
X62189Y-47028D01*
X62227Y-46952D01*
X62227Y-46913D01*
X62189Y-46837D01*
X62113Y-46799D01*
X61999Y-46799D01*
X61922Y-46761D01*
X61884Y-46685D01*
X61884Y-46647D01*
X61922Y-46571D01*
X61999Y-46532D01*
X62113Y-46532D01*
X62189Y-46571D01*
X62494Y-47371D02*
X62532Y-47332D01*
X62609Y-47218D01*
X62647Y-47142D01*
X62685Y-47028D01*
X62723Y-46837D01*
X62723Y-46685D01*
X62685Y-46494D01*
X62647Y-46380D01*
X62609Y-46304D01*
X62532Y-46190D01*
X62494Y-46152D01*
M02*
