G04 (created by PCBNEW-RS274X (2012-jan-04)-stable) date Fri 05 Oct 2012 03:30:30 PM CEST*
G01*
G70*
G90*
%MOIN*%
G04 Gerber Fmt 3.4, Leading zero omitted, Abs format*
%FSLAX34Y34*%
G04 APERTURE LIST*
%ADD10C,0.006000*%
%ADD11R,0.070000X0.070000*%
%ADD12C,0.070000*%
%ADD13R,0.063000X0.027600*%
%ADD14R,0.086600X0.039400*%
%ADD15R,0.133900X0.074800*%
%ADD16C,0.025000*%
%ADD17C,0.028000*%
G04 APERTURE END LIST*
G54D10*
G54D11*
X47130Y-40083D03*
G54D12*
X48130Y-40083D03*
X49130Y-40083D03*
X49130Y-37083D03*
X48130Y-37083D03*
X47130Y-37083D03*
G54D13*
X47382Y-37992D03*
G54D14*
X47500Y-38583D03*
G54D13*
X47382Y-39174D03*
X48878Y-39174D03*
X48878Y-37992D03*
G54D15*
X48524Y-38583D03*
G54D16*
X48386Y-38819D03*
X48386Y-38346D03*
X47992Y-38346D03*
X48189Y-38583D03*
X47992Y-38819D03*
G54D17*
X47382Y-39174D02*
X48032Y-39174D01*
X49134Y-40079D02*
X49130Y-40083D01*
X48622Y-39567D02*
X49134Y-40079D01*
X48425Y-39567D02*
X48622Y-39567D01*
X48032Y-39174D02*
X48425Y-39567D01*
X48130Y-37083D02*
X48183Y-37083D01*
X48878Y-37778D02*
X48878Y-37992D01*
X48183Y-37083D02*
X48878Y-37778D01*
X48189Y-38583D02*
X48524Y-38583D01*
X47992Y-38346D02*
X48386Y-38346D01*
X47500Y-38583D02*
X48524Y-38583D01*
X48386Y-38819D02*
X47992Y-38819D01*
X47083Y-40083D02*
X46700Y-39700D01*
X46808Y-37992D02*
X47382Y-37992D01*
X46700Y-39700D02*
X46700Y-38100D01*
X46700Y-38100D02*
X46808Y-37992D01*
X47130Y-40083D02*
X47083Y-40083D01*
X49130Y-37083D02*
X49183Y-37083D01*
X49183Y-37083D02*
X49600Y-37500D01*
X49600Y-37500D02*
X49600Y-39100D01*
X49600Y-39100D02*
X49526Y-39174D01*
X49526Y-39174D02*
X48878Y-39174D01*
M02*
