G04 (created by PCBNEW (2013-06-29 BZR 4231)-testing) date Sat 29 Jun 2013 05:00:59 PM CEST*
%MOIN*%
G04 Gerber Fmt 3.4, Leading zero omitted, Abs format*
%FSLAX34Y34*%
G01*
G70*
G90*
G04 APERTURE LIST*
%ADD10C,0.005906*%
%ADD11R,0.070000X0.070000*%
%ADD12C,0.070000*%
%ADD13C,0.025000*%
%ADD14C,0.028000*%
%ADD15C,0.008000*%
G04 APERTURE END LIST*
G54D10*
G54D11*
X47130Y-40083D03*
G54D12*
X48130Y-40083D03*
X49130Y-40083D03*
X49130Y-37083D03*
X48130Y-37083D03*
X47130Y-37083D03*
G54D13*
X48386Y-38819D03*
X48386Y-38346D03*
X47992Y-38346D03*
X48189Y-38583D03*
X47992Y-38819D03*
G54D14*
X48386Y-38346D02*
X48386Y-38858D01*
X48386Y-38858D02*
X48386Y-38819D01*
X48130Y-38484D02*
X47992Y-38346D01*
X48189Y-38622D02*
X48189Y-38583D01*
X47992Y-38819D02*
X48189Y-38622D01*
X48130Y-40083D02*
X48130Y-38484D01*
G54D10*
G36*
X49707Y-40553D02*
X49171Y-40553D01*
X49257Y-40538D01*
X49343Y-40505D01*
X49421Y-40455D01*
X49487Y-40392D01*
X49541Y-40316D01*
X49578Y-40232D01*
X49599Y-40142D01*
X49600Y-40037D01*
X49600Y-37037D01*
X49582Y-36947D01*
X49547Y-36861D01*
X49496Y-36785D01*
X49431Y-36719D01*
X49355Y-36668D01*
X49270Y-36632D01*
X49179Y-36613D01*
X49087Y-36613D01*
X48997Y-36630D01*
X48911Y-36664D01*
X48834Y-36715D01*
X48768Y-36779D01*
X48716Y-36855D01*
X48680Y-36940D01*
X48661Y-37030D01*
X48659Y-37122D01*
X48676Y-37213D01*
X48710Y-37299D01*
X48760Y-37376D01*
X48824Y-37443D01*
X48900Y-37495D01*
X48984Y-37532D01*
X49074Y-37552D01*
X49166Y-37554D01*
X49257Y-37538D01*
X49343Y-37505D01*
X49421Y-37455D01*
X49487Y-37392D01*
X49541Y-37316D01*
X49578Y-37232D01*
X49599Y-37142D01*
X49600Y-37037D01*
X49600Y-40037D01*
X49582Y-39947D01*
X49547Y-39861D01*
X49496Y-39785D01*
X49431Y-39719D01*
X49355Y-39668D01*
X49270Y-39632D01*
X49179Y-39613D01*
X49087Y-39613D01*
X48997Y-39630D01*
X48911Y-39664D01*
X48834Y-39715D01*
X48768Y-39779D01*
X48716Y-39855D01*
X48680Y-39940D01*
X48661Y-40030D01*
X48659Y-40122D01*
X48676Y-40213D01*
X48710Y-40299D01*
X48760Y-40376D01*
X48824Y-40443D01*
X48900Y-40495D01*
X48984Y-40532D01*
X49074Y-40552D01*
X49120Y-40553D01*
X48600Y-40553D01*
X48600Y-37037D01*
X48582Y-36947D01*
X48547Y-36861D01*
X48496Y-36785D01*
X48431Y-36719D01*
X48355Y-36668D01*
X48270Y-36632D01*
X48179Y-36613D01*
X48087Y-36613D01*
X47997Y-36630D01*
X47911Y-36664D01*
X47834Y-36715D01*
X47768Y-36779D01*
X47716Y-36855D01*
X47680Y-36940D01*
X47661Y-37030D01*
X47659Y-37122D01*
X47676Y-37213D01*
X47710Y-37299D01*
X47760Y-37376D01*
X47824Y-37443D01*
X47900Y-37495D01*
X47984Y-37532D01*
X48074Y-37552D01*
X48166Y-37554D01*
X48257Y-37538D01*
X48343Y-37505D01*
X48421Y-37455D01*
X48487Y-37392D01*
X48541Y-37316D01*
X48578Y-37232D01*
X48599Y-37142D01*
X48600Y-37037D01*
X48600Y-40553D01*
X48579Y-40553D01*
X48579Y-40092D01*
X48572Y-40005D01*
X48549Y-39920D01*
X48509Y-39843D01*
X48499Y-39827D01*
X48437Y-39790D01*
X48423Y-39804D01*
X48423Y-39776D01*
X48386Y-39714D01*
X48310Y-39671D01*
X48226Y-39645D01*
X48139Y-39634D01*
X48052Y-39641D01*
X47967Y-39664D01*
X47890Y-39704D01*
X47874Y-39714D01*
X47837Y-39776D01*
X48130Y-40069D01*
X48423Y-39776D01*
X48423Y-39804D01*
X48144Y-40083D01*
X48437Y-40376D01*
X48499Y-40339D01*
X48542Y-40263D01*
X48568Y-40179D01*
X48579Y-40092D01*
X48579Y-40553D01*
X48423Y-40553D01*
X48423Y-40390D01*
X48130Y-40097D01*
X48116Y-40111D01*
X48116Y-40083D01*
X47823Y-39790D01*
X47761Y-39827D01*
X47718Y-39903D01*
X47692Y-39987D01*
X47681Y-40074D01*
X47688Y-40161D01*
X47711Y-40246D01*
X47751Y-40323D01*
X47761Y-40339D01*
X47823Y-40376D01*
X48116Y-40083D01*
X48116Y-40111D01*
X47837Y-40390D01*
X47874Y-40452D01*
X47950Y-40495D01*
X48034Y-40521D01*
X48121Y-40532D01*
X48208Y-40525D01*
X48293Y-40502D01*
X48370Y-40462D01*
X48386Y-40452D01*
X48423Y-40390D01*
X48423Y-40553D01*
X47600Y-40553D01*
X47600Y-37037D01*
X47582Y-36947D01*
X47547Y-36861D01*
X47496Y-36785D01*
X47431Y-36719D01*
X47355Y-36668D01*
X47270Y-36632D01*
X47179Y-36613D01*
X47087Y-36613D01*
X46997Y-36630D01*
X46911Y-36664D01*
X46834Y-36715D01*
X46768Y-36779D01*
X46716Y-36855D01*
X46680Y-36940D01*
X46661Y-37030D01*
X46659Y-37122D01*
X46676Y-37213D01*
X46710Y-37299D01*
X46760Y-37376D01*
X46824Y-37443D01*
X46900Y-37495D01*
X46984Y-37532D01*
X47074Y-37552D01*
X47166Y-37554D01*
X47257Y-37538D01*
X47343Y-37505D01*
X47421Y-37455D01*
X47487Y-37392D01*
X47541Y-37316D01*
X47578Y-37232D01*
X47599Y-37142D01*
X47600Y-37037D01*
X47600Y-40553D01*
X47599Y-40553D01*
X47599Y-40445D01*
X47599Y-40422D01*
X47599Y-39721D01*
X47594Y-39698D01*
X47585Y-39677D01*
X47572Y-39657D01*
X47556Y-39641D01*
X47537Y-39628D01*
X47515Y-39619D01*
X47492Y-39614D01*
X47469Y-39614D01*
X46768Y-39614D01*
X46745Y-39619D01*
X46724Y-39628D01*
X46704Y-39641D01*
X46688Y-39657D01*
X46675Y-39676D01*
X46666Y-39698D01*
X46661Y-39721D01*
X46661Y-39744D01*
X46661Y-40445D01*
X46666Y-40468D01*
X46675Y-40489D01*
X46688Y-40509D01*
X46704Y-40525D01*
X46723Y-40538D01*
X46745Y-40547D01*
X46768Y-40552D01*
X46791Y-40552D01*
X47492Y-40552D01*
X47515Y-40547D01*
X47536Y-40538D01*
X47556Y-40525D01*
X47572Y-40509D01*
X47585Y-40490D01*
X47594Y-40468D01*
X47599Y-40445D01*
X47599Y-40553D01*
X46553Y-40553D01*
X46553Y-36612D01*
X49707Y-36612D01*
X49707Y-40553D01*
X49707Y-40553D01*
G37*
G54D15*
X49707Y-40553D02*
X49171Y-40553D01*
X49257Y-40538D01*
X49343Y-40505D01*
X49421Y-40455D01*
X49487Y-40392D01*
X49541Y-40316D01*
X49578Y-40232D01*
X49599Y-40142D01*
X49600Y-40037D01*
X49600Y-37037D01*
X49582Y-36947D01*
X49547Y-36861D01*
X49496Y-36785D01*
X49431Y-36719D01*
X49355Y-36668D01*
X49270Y-36632D01*
X49179Y-36613D01*
X49087Y-36613D01*
X48997Y-36630D01*
X48911Y-36664D01*
X48834Y-36715D01*
X48768Y-36779D01*
X48716Y-36855D01*
X48680Y-36940D01*
X48661Y-37030D01*
X48659Y-37122D01*
X48676Y-37213D01*
X48710Y-37299D01*
X48760Y-37376D01*
X48824Y-37443D01*
X48900Y-37495D01*
X48984Y-37532D01*
X49074Y-37552D01*
X49166Y-37554D01*
X49257Y-37538D01*
X49343Y-37505D01*
X49421Y-37455D01*
X49487Y-37392D01*
X49541Y-37316D01*
X49578Y-37232D01*
X49599Y-37142D01*
X49600Y-37037D01*
X49600Y-40037D01*
X49582Y-39947D01*
X49547Y-39861D01*
X49496Y-39785D01*
X49431Y-39719D01*
X49355Y-39668D01*
X49270Y-39632D01*
X49179Y-39613D01*
X49087Y-39613D01*
X48997Y-39630D01*
X48911Y-39664D01*
X48834Y-39715D01*
X48768Y-39779D01*
X48716Y-39855D01*
X48680Y-39940D01*
X48661Y-40030D01*
X48659Y-40122D01*
X48676Y-40213D01*
X48710Y-40299D01*
X48760Y-40376D01*
X48824Y-40443D01*
X48900Y-40495D01*
X48984Y-40532D01*
X49074Y-40552D01*
X49120Y-40553D01*
X48600Y-40553D01*
X48600Y-37037D01*
X48582Y-36947D01*
X48547Y-36861D01*
X48496Y-36785D01*
X48431Y-36719D01*
X48355Y-36668D01*
X48270Y-36632D01*
X48179Y-36613D01*
X48087Y-36613D01*
X47997Y-36630D01*
X47911Y-36664D01*
X47834Y-36715D01*
X47768Y-36779D01*
X47716Y-36855D01*
X47680Y-36940D01*
X47661Y-37030D01*
X47659Y-37122D01*
X47676Y-37213D01*
X47710Y-37299D01*
X47760Y-37376D01*
X47824Y-37443D01*
X47900Y-37495D01*
X47984Y-37532D01*
X48074Y-37552D01*
X48166Y-37554D01*
X48257Y-37538D01*
X48343Y-37505D01*
X48421Y-37455D01*
X48487Y-37392D01*
X48541Y-37316D01*
X48578Y-37232D01*
X48599Y-37142D01*
X48600Y-37037D01*
X48600Y-40553D01*
X48579Y-40553D01*
X48579Y-40092D01*
X48572Y-40005D01*
X48549Y-39920D01*
X48509Y-39843D01*
X48499Y-39827D01*
X48437Y-39790D01*
X48423Y-39804D01*
X48423Y-39776D01*
X48386Y-39714D01*
X48310Y-39671D01*
X48226Y-39645D01*
X48139Y-39634D01*
X48052Y-39641D01*
X47967Y-39664D01*
X47890Y-39704D01*
X47874Y-39714D01*
X47837Y-39776D01*
X48130Y-40069D01*
X48423Y-39776D01*
X48423Y-39804D01*
X48144Y-40083D01*
X48437Y-40376D01*
X48499Y-40339D01*
X48542Y-40263D01*
X48568Y-40179D01*
X48579Y-40092D01*
X48579Y-40553D01*
X48423Y-40553D01*
X48423Y-40390D01*
X48130Y-40097D01*
X48116Y-40111D01*
X48116Y-40083D01*
X47823Y-39790D01*
X47761Y-39827D01*
X47718Y-39903D01*
X47692Y-39987D01*
X47681Y-40074D01*
X47688Y-40161D01*
X47711Y-40246D01*
X47751Y-40323D01*
X47761Y-40339D01*
X47823Y-40376D01*
X48116Y-40083D01*
X48116Y-40111D01*
X47837Y-40390D01*
X47874Y-40452D01*
X47950Y-40495D01*
X48034Y-40521D01*
X48121Y-40532D01*
X48208Y-40525D01*
X48293Y-40502D01*
X48370Y-40462D01*
X48386Y-40452D01*
X48423Y-40390D01*
X48423Y-40553D01*
X47600Y-40553D01*
X47600Y-37037D01*
X47582Y-36947D01*
X47547Y-36861D01*
X47496Y-36785D01*
X47431Y-36719D01*
X47355Y-36668D01*
X47270Y-36632D01*
X47179Y-36613D01*
X47087Y-36613D01*
X46997Y-36630D01*
X46911Y-36664D01*
X46834Y-36715D01*
X46768Y-36779D01*
X46716Y-36855D01*
X46680Y-36940D01*
X46661Y-37030D01*
X46659Y-37122D01*
X46676Y-37213D01*
X46710Y-37299D01*
X46760Y-37376D01*
X46824Y-37443D01*
X46900Y-37495D01*
X46984Y-37532D01*
X47074Y-37552D01*
X47166Y-37554D01*
X47257Y-37538D01*
X47343Y-37505D01*
X47421Y-37455D01*
X47487Y-37392D01*
X47541Y-37316D01*
X47578Y-37232D01*
X47599Y-37142D01*
X47600Y-37037D01*
X47600Y-40553D01*
X47599Y-40553D01*
X47599Y-40445D01*
X47599Y-40422D01*
X47599Y-39721D01*
X47594Y-39698D01*
X47585Y-39677D01*
X47572Y-39657D01*
X47556Y-39641D01*
X47537Y-39628D01*
X47515Y-39619D01*
X47492Y-39614D01*
X47469Y-39614D01*
X46768Y-39614D01*
X46745Y-39619D01*
X46724Y-39628D01*
X46704Y-39641D01*
X46688Y-39657D01*
X46675Y-39676D01*
X46666Y-39698D01*
X46661Y-39721D01*
X46661Y-39744D01*
X46661Y-40445D01*
X46666Y-40468D01*
X46675Y-40489D01*
X46688Y-40509D01*
X46704Y-40525D01*
X46723Y-40538D01*
X46745Y-40547D01*
X46768Y-40552D01*
X46791Y-40552D01*
X47492Y-40552D01*
X47515Y-40547D01*
X47536Y-40538D01*
X47556Y-40525D01*
X47572Y-40509D01*
X47585Y-40490D01*
X47594Y-40468D01*
X47599Y-40445D01*
X47599Y-40553D01*
X46553Y-40553D01*
X46553Y-36612D01*
X49707Y-36612D01*
X49707Y-40553D01*
M02*
